<svg width="600" height="600" viewBox="0 0 600 600" fill="none" xmlns="http://www.w3.org/2000/svg">
<path d="M302.75 308.25C302.083 309.083 300.833 309.75 299 310.25C297.333 310.583 295.583 310.083 293.75 308.75C292.417 307.75 290.833 306.75 289 305.75C287.167 304.583 285.167 303.5 283 302.5C280.833 301.5 278.667 300.667 276.5 300C274.333 299.333 272.25 299 270.25 299C267.75 299 265.083 299.583 262.25 300.75C259.583 301.917 257.25 303.583 255.25 305.75C251.417 309.917 250 314 251 318C252.167 321.833 255.083 325.417 259.75 328.75C262.75 330.917 266 333.167 269.5 335.5C273 337.667 276.417 339.833 279.75 342C283.25 344.167 286.5 346.25 289.5 348.25C292.667 350.25 295.417 352 297.75 353.5C300.75 355.5 303.583 357.667 306.25 360C308.917 362.333 311.25 365 313.25 368C315.25 370.833 316.833 374.083 318 377.75C319.167 381.417 319.75 385.583 319.75 390.25C318.583 399.417 314.917 406.75 308.75 412.25C302.75 417.583 295.75 421 287.75 422.5C280.75 423.833 273.833 423.583 267 421.75C260.333 419.917 254.667 416.417 250 411.25C248.833 409.917 247.833 408.083 247 405.75C246.167 403.417 246.083 401.75 246.75 400.75C247.75 399.25 249.5 398.25 252 397.75C254.5 397.083 256.417 397.167 257.75 398C261.583 401.5 266.083 404.083 271.25 405.75C276.417 407.25 281.833 407.333 287.5 406C291.833 405 295.333 403.167 298 400.5C300.667 397.667 302.333 394.5 303 391C303.833 387.333 303.333 383.583 301.5 379.75C299.833 375.75 296.75 372.167 292.25 369C285.417 363.833 278.083 359 270.25 354.5C262.583 350 254.75 344.833 246.75 339C242.917 335.667 240.083 332 238.25 328C236.583 324 235.75 320.083 235.75 316.25C235.75 312.25 236.583 308.5 238.25 305C239.917 301.333 242.25 298.083 245.25 295.25C248.25 292.25 251.75 289.833 255.75 288C259.75 286.167 264.167 285.083 269 284.75C275.667 284.417 282.083 285.833 288.25 289C294.417 292 299.417 295.75 303.25 300.25C304.083 301.25 304.417 302.5 304.25 304C304.25 305.5 303.75 306.917 302.75 308.25Z" fill="white"/>
<path d="M545.019 324.89C546.014 327.67 547.244 330.187 548.71 332.44C550.165 334.526 551.652 335.693 553.168 335.939C556.378 336.589 558.762 335.951 560.32 334.024C561.878 332.098 562.41 329.73 561.914 326.921C560.007 317.014 557.24 306.656 553.612 295.847C549.975 284.872 545.843 274.008 541.216 263.256C536.581 252.338 531.636 241.855 526.382 231.808C520.953 221.603 515.498 212.402 510.017 204.204C509.108 202.921 508.15 202.224 507.142 202.116C505.958 201.85 504.96 201.908 504.147 202.288C503.277 201.671 502.245 201.146 501.051 200.714C499.858 200.282 498.679 200.099 497.514 200.166C497.015 200.195 496.52 200.307 496.031 200.502C495.375 200.707 494.738 201.245 494.12 202.115C493.503 202.985 492.826 204.276 492.09 205.988C491.178 207.543 490.143 209.857 488.984 212.928C487.144 221.548 484.985 230.437 482.508 239.595C479.864 248.762 477.137 257.935 474.327 267.111C473.819 266.974 473.398 266.915 473.065 266.934C472.556 266.796 472.048 266.659 471.539 266.521C469.699 266.46 467.624 266.663 465.314 267.13C463.003 267.597 461.49 268.853 460.773 270.898C459.918 273.451 460.209 275.604 461.646 277.358C463.083 279.112 465.601 280.803 469.2 282.432C467.344 287.881 465.483 293.247 463.617 298.53C461.742 303.646 459.779 308.684 457.727 313.644C457.609 314.485 457.436 315.831 457.209 317.68C456.972 319.363 456.906 321.12 457.012 322.95C456.941 324.624 457.115 326.2 457.535 327.678C457.954 329.156 458.677 330.116 459.704 330.558C460.897 330.99 462.14 330.835 463.433 330.093C464.56 329.36 465.676 328.461 466.784 327.395C467.881 326.163 468.896 324.936 469.827 323.714C470.582 322.335 471.18 321.132 471.622 320.105C474.134 314.451 476.563 308.802 478.909 303.158C481.079 297.356 483.166 291.56 485.169 285.769C492.234 286.697 499.955 287.421 508.332 287.939C516.543 288.468 524.651 288.668 532.657 288.541C534.852 294.758 537.042 300.892 539.227 306.943C541.236 312.837 543.167 318.82 545.019 324.89ZM503.536 222.106C512.178 238.803 519.821 255.558 526.466 272.37C515.299 272.68 503.321 271.951 490.531 270.184C495.649 254.697 499.984 238.671 503.536 222.106Z" fill="white"/>
<path d="M239.5 196C237.167 224.333 234.333 253.333 231 283C228 312.333 223.833 340 218.5 366C217.167 372.333 215.333 376.833 213 379.5C210.667 382.167 207.333 384 203 385C199.333 385.667 194.167 384.5 187.5 381.5C181.167 378.5 175.833 374.167 171.5 368.5C165.833 360.833 159.667 352.5 153 343.5C146.667 334.167 139.667 324.833 132 315.5C124.667 305.833 116.833 296.333 108.5 287C100.5 277.667 92 269 83 261C82 283 81.1667 304.833 80.5 326.5C79.8333 347.833 79.8333 369.333 80.5 391C80.5 394 77.8333 395.5 72.5 395.5C66.1667 395.5 61 392.333 57 386C53 379.333 50.6667 372.667 50 366C49 359.333 48.5 349.833 48.5 337.5C48.5 324.833 48.6667 311.667 49 298C49.6667 284.333 50.3333 271.167 51 258.5C51.6667 245.833 52.3333 235.833 53 228.5C53.6667 220.5 55.5 214.667 58.5 211C61.8333 207.333 65 205.667 68 206C74.6667 206.667 79 208.667 81 212C83.3333 215 84.6667 218.833 85 223.5C97 232.167 108 241.5 118 251.5C128.333 261.5 137.667 271.667 146 282C154.667 292.333 162.5 302.667 169.5 313C176.833 323 183.667 332.167 190 340.5C194 320.5 197.167 298.167 199.5 273.5C202.167 248.833 204.833 223 207.5 196C207.167 192.667 209.167 189.5 213.5 186.5C217.833 183.167 221.833 181.667 225.5 182C234.833 182.667 239.5 187.333 239.5 196Z" fill="white"/>
<path d="M336.5 201C338.167 212.333 340 224.167 342 236.5C344 248.5 346 261.5 348 275.5C363.333 265.833 379.333 256.167 396 246.5C413 236.5 428.833 228.5 443.5 222.5C444.833 222.167 446.5 222.167 448.5 222.5C450.833 222.5 453.167 223 455.5 224C457.833 224.667 459.833 225.667 461.5 227C463.167 228.333 464.333 230 465 232C465.667 234.333 465.167 237.5 463.5 241.5C461.833 245.167 460 247.333 458 248C454 250.333 448.667 253.5 442 257.5C435.667 261.167 428.833 265.167 421.5 269.5C414.5 273.833 407.5 278.167 400.5 282.5C393.833 286.833 388.167 290.5 383.5 293.5C402.5 303.833 421 312.667 439 320C457.333 327.333 476.667 333.333 497 338C499 338.333 501 339.667 503 342C505.333 344 507.167 346.5 508.5 349.5C509.833 352.5 510.5 355.5 510.5 358.5C510.833 361.5 510.167 364.167 508.5 366.5C506.5 369.167 503.667 370.833 500 371.5C496.667 371.833 493.167 371.667 489.5 371C464.167 365 441 357.667 420 349C399 340 377 329.167 354 316.5C355.667 330.833 357.167 345.667 358.5 361C360.167 376.333 361.667 392.5 363 409.5C363 413.167 361.5 415.333 358.5 416C355.5 416.333 352.167 416.167 348.5 415.5C344.833 414.833 341.5 413.667 338.5 412C335.5 410.333 333.667 408.667 333 407C331 391.667 328.833 375.5 326.5 358.5C324.5 341.5 322.167 324.333 319.5 307C316.833 289.333 314 272 311 255C308 237.667 305 221.167 302 205.5C301.333 201.833 302.167 197.667 304.5 193C306.833 188 311.167 185.167 317.5 184.5C319.833 184.5 322 185.167 324 186.5C326.333 187.5 328.333 189 330 191C332 192.667 333.5 194.5 334.5 196.5C335.5 198.167 336.167 199.667 336.5 201Z" fill="white"/>
</svg>
